<svg width="240" height="278" xmlns="http://www.w3.org/2000/svg" xmlns:xlink="http://www.w3.org/1999/xlink" overflow="hidden"><defs><filter id="fx0" x="-10%" y="-10%" width="120%" height="120%" filterUnits="userSpaceOnUse" primitiveUnits="userSpaceOnUse"><feComponentTransfer color-interpolation-filters="sRGB"><feFuncR type="discrete" tableValues="0 0"/><feFuncG type="discrete" tableValues="0 0"/><feFuncB type="discrete" tableValues="0 0"/><feFuncA type="linear" slope="0.4" intercept="0"/></feComponentTransfer><feGaussianBlur stdDeviation="1.77778 1.77778"/></filter><filter id="fx1" x="-10%" y="-10%" width="120%" height="120%" filterUnits="userSpaceOnUse" primitiveUnits="userSpaceOnUse"><feComponentTransfer color-interpolation-filters="sRGB"><feFuncR type="discrete" tableValues="0 0"/><feFuncG type="discrete" tableValues="0 0"/><feFuncB type="discrete" tableValues="0 0"/><feFuncA type="linear" slope="0.4" intercept="0"/></feComponentTransfer><feGaussianBlur stdDeviation="1.77778 1.77778"/></filter><clipPath id="clip2"><rect x="0" y="0" width="240" height="278"/></clipPath><clipPath id="clip3"><rect x="33" y="95" width="58" height="59"/></clipPath><clipPath id="clip4"><rect x="33" y="95" width="58" height="59"/></clipPath><clipPath id="clip5"><rect x="33" y="95" width="58" height="59"/></clipPath><clipPath id="clip6"><rect x="89" y="81" width="62" height="61"/></clipPath><clipPath id="clip7"><rect x="89" y="81" width="62" height="61"/></clipPath><clipPath id="clip8"><rect x="89" y="81" width="62" height="61"/></clipPath><clipPath id="clip9"><path d="M148.717 94.4151 202.061 102.98 193.496 156.324 140.152 147.76Z" fill-rule="evenodd" clip-rule="evenodd"/></clipPath><clipPath id="clip10"><path d="M148.717 94.4151 202.061 102.98 193.496 156.324 140.152 147.76Z" fill-rule="evenodd" clip-rule="evenodd"/></clipPath><clipPath id="clip11"><path d="M148.717 94.4151 202.061 102.98 193.496 156.324 140.152 147.76Z" fill-rule="evenodd" clip-rule="evenodd"/></clipPath><clipPath id="clip12"><rect x="1" y="31" width="76" height="50"/></clipPath><clipPath id="clip13"><rect x="0" y="0" width="76" height="112"/></clipPath><clipPath id="clip14"><rect x="6" y="6" width="63" height="99"/></clipPath><clipPath id="clip15"><rect x="6" y="6" width="63" height="99"/></clipPath><clipPath id="clip16"><rect x="6" y="6" width="96" height="99"/></clipPath><clipPath id="clip17"><rect x="41" y="105" width="62" height="98"/></clipPath><clipPath id="clip18"><rect x="41" y="105" width="62" height="98"/></clipPath><clipPath id="clip19"><rect x="41" y="105" width="95" height="98"/></clipPath><clipPath id="clip20"><rect x="1" y="31" width="105" height="50"/></clipPath><clipPath id="clip21"><rect x="0" y="0" width="108" height="112"/></clipPath><clipPath id="clip22"><rect x="6" y="6" width="95" height="99"/></clipPath><clipPath id="clip23"><rect x="6" y="6" width="95" height="99"/></clipPath><clipPath id="clip24"><rect x="6" y="6" width="95" height="99"/></clipPath><clipPath id="clip25"><rect x="101" y="105" width="94" height="98"/></clipPath><clipPath id="clip26"><rect x="101" y="105" width="94" height="98"/></clipPath><clipPath id="clip27"><rect x="101" y="105" width="94" height="98"/></clipPath></defs><g clip-path="url(#clip2)"><rect x="0" y="0" width="240" height="278" fill="#FFFFFF"/><path d="M120 6 233 62.5 233 215.5 120 272 7 215.5 7 62.5Z" stroke="#404040" stroke-width="10.3333" stroke-linejoin="round" stroke-miterlimit="10" fill="#FFF2CC" fill-rule="evenodd"/><path d="M26.1983 79.4276C26.6377 78.7169 27.3398 78.0759 28.3044 77.5044L30.8163 81.1206C30.2279 81.5426 29.8312 81.9195 29.6261 82.2511 29.2355 82.8828 29.1934 83.5335 29.4997 84.2031 29.9264 85.1546 31.1465 86.2529 33.16 87.4979L37.3764 90.1052 34.381 94.9493 21.8028 87.1716 24.5931 82.6591 26.6539 83.9334C26.0302 82.9474 25.6934 82.1197 25.6434 81.4503 25.5935 80.7808 25.7784 80.1066 26.1983 79.4276Z" fill="#4472C4" fill-rule="evenodd"/><text fill="#000000" fill-opacity="0" font-family="Arial,Arial_MSFontService,sans-serif" font-size="17.4449" x="21.8028" y="92.7687">r</text><path d="M37.6107 71.0024C36.9841 71.6492 36.7402 72.4146 36.8789 73.2987 36.9599 73.8555 37.2848 74.4741 37.8536 75.1544L41.7392 71.1439C40.8749 70.4617 40.1064 70.1275 39.4337 70.1414 38.761 70.1554 38.1533 70.4424 37.6107 71.0024ZM35.0357 68.8372C36.5085 67.3171 37.9013 66.3398 39.2141 65.9054 40.5268 65.471 41.8428 65.4469 43.1619 65.8331 44.4811 66.2193 45.8408 67.0906 47.241 68.4472L47.701 68.8929 39.7942 77.0539C40.5187 77.6136 41.1766 77.9085 41.7679 77.9386 42.6091 77.9909 43.3366 77.7004 43.9502 77.067 44.3378 76.6669 44.606 76.19 44.7548 75.6361 44.8413 75.2934 44.8473 74.8403 44.7727 74.2768L49.0283 70.6248C49.5008 72.2718 49.5489 73.7532 49.1725 75.0689 48.7961 76.3846 47.8231 77.8526 46.2533 79.4728 44.8903 80.8797 43.6196 81.7943 42.4413 82.2167 41.2629 82.6391 39.9852 82.6971 38.6082 82.3906 37.2313 82.0841 35.9593 81.3656 34.7925 80.2352 33.1323 78.6267 32.304 76.7933 32.3075 74.735 32.3111 72.6767 33.2205 70.7108 35.0357 68.8372Z" fill="#4472C4" fill-rule="evenodd"/><text fill="#000000" fill-opacity="0" font-family="Arial,Arial_MSFontService,sans-serif" font-size="17.0234" x="32.3075" y="80.456">e</text><path d="M51.3637 55.3557C53.3763 54.0231 55.1491 53.3669 56.6824 53.3871 58.2156 53.4074 59.6538 53.9693 60.997 55.073L56.9422 58.6097C56.4543 58.1756 55.9381 57.9467 55.3936 57.9231 54.8491 57.8996 54.2673 58.0928 53.648 58.5028 52.8662 59.0205 52.4189 59.7195 52.306 60.6 52.1932 61.4805 52.5128 62.4887 53.265 63.6247 53.9352 64.6368 54.6842 65.2467 55.512 65.4544 56.3398 65.662 57.1252 65.5198 57.8683 65.0277 58.4876 64.6177 58.903 64.1143 59.1147 63.5176 59.3265 62.9209 59.319 62.2244 59.0923 61.4281L63.924 58.9637C64.2964 60.0643 64.4269 61.1442 64.3155 62.2034 64.204 63.2626 63.8346 64.2727 63.2072 65.2337 62.5798 66.1947 61.5888 67.1237 60.2342 68.0206 58.9261 68.8868 57.7559 69.4864 56.7239 69.8194 55.6918 70.1525 54.6817 70.2539 53.6937 70.1239 52.7057 69.9938 51.7905 69.6793 50.9479 69.1804 50.1054 68.6815 49.2821 67.825 48.4782 66.6108 47.6383 65.3424 47.156 64.1433 47.0313 63.0133 46.9391 62.1845 47.0051 61.3426 47.2295 60.4876 47.4539 59.6326 47.777 58.893 48.1988 58.2689 48.869 57.2801 49.924 56.309 51.3637 55.3557Z" fill="#4472C4" fill-rule="evenodd"/><text fill="#000000" fill-opacity="0" font-family="Arial,Arial_MSFontService,sans-serif" font-size="16.792" x="46.991" y="68.0797">c</text><path d="M70.922 49.3128C70.1617 49.636 69.6581 50.1956 69.4115 50.9916 69.1648 51.7875 69.2957 52.7834 69.8042 53.9795 70.3201 55.1927 70.9471 55.9853 71.6853 56.3574 72.4236 56.7295 73.1644 56.7575 73.9076 56.4415 74.6595 56.1218 75.155 55.5732 75.3943 54.7955 75.6337 54.0179 75.4845 52.9968 74.9469 51.7324 74.4456 50.5534 73.8289 49.7791 73.0968 49.4095 72.3646 49.0399 71.6397 49.0076 70.922 49.3128ZM69.3195 45.7572C72.0448 44.5984 74.4398 44.5133 76.5044 45.5017 78.1648 46.2988 79.391 47.6286 80.1829 49.4911 81.0728 51.5842 81.1079 53.5944 80.2881 55.5218 79.4682 57.4491 77.8324 58.934 75.3804 59.9765 73.1933 60.9064 71.1887 61.1031 69.3666 60.5663 67.1244 59.8956 65.5292 58.4453 64.5811 56.2154 63.6984 54.1394 63.6716 52.1307 64.5006 50.1894 65.3296 48.2481 66.9359 46.7707 69.3195 45.7572Z" fill="#4472C4" fill-rule="evenodd"/><text fill="#000000" fill-opacity="0" font-family="Arial,Arial_MSFontService,sans-serif" font-size="16.0418" x="63.8983" y="58.8557">o</text><path d="M91.5318 38.6588C92.6885 38.4219 93.6458 38.4391 94.4036 38.7103 95.1615 38.9815 95.8373 39.478 96.4311 40.1998 97.1093 39.0753 97.7722 38.2691 98.4199 37.7811 99.0675 37.2931 99.9181 36.9412 100.972 36.7254 102.525 36.4073 103.832 36.6205 104.893 37.365 105.954 38.1096 106.685 39.4641 107.088 41.4285L108.951 50.5279 103.385 51.6679 101.695 43.4144C101.561 42.7596 101.334 42.299 101.015 42.0326 100.541 41.6085 100.028 41.4531 99.475 41.5663 98.8225 41.7 98.3452 42.0441 98.0433 42.5987 97.7413 43.1533 97.6974 43.9536 97.9117 44.9995L99.4429 52.4754 93.8769 53.6154 92.2423 45.6348C92.1119 44.9981 91.9869 44.5736 91.8673 44.3612 91.6741 44.0217 91.4087 43.7705 91.071 43.6074 90.7334 43.4444 90.3683 43.4031 89.976 43.4835 89.3371 43.6143 88.8616 43.9628 88.5497 44.529 88.2377 45.0951 88.1945 45.9284 88.4199 47.0289L89.9343 54.4229 84.3683 55.563 81.4009 41.075 86.5849 40.0132 87.018 42.1277C87.5842 41.0926 88.2094 40.3107 88.8935 39.782 89.5776 39.2534 90.457 38.879 91.5318 38.6588Z" fill="#4472C4" fill-rule="evenodd"/><text fill="#000000" fill-opacity="0" font-family="Arial,Arial_MSFontService,sans-serif" font-size="18.9804" x="81.4009" y="53.1904">m</text><path d="M121.613 35.4766C122.793 35.5015 123.723 35.73 124.402 36.1621 125.081 36.5943 125.63 37.228 126.05 38.0632 126.96 37.1167 127.785 36.4771 128.524 36.1444 129.264 35.8118 130.171 35.6568 131.247 35.6794 132.831 35.7127 134.059 36.2098 134.929 37.1706 135.799 38.1314 136.213 39.6142 136.171 41.619L135.975 50.9052 130.295 50.7856 130.472 42.3627C130.486 41.6944 130.367 41.1951 130.115 40.8648 129.746 40.3463 129.28 40.0812 128.716 40.0693 128.05 40.0553 127.509 40.2853 127.091 40.7594 126.674 41.2335 126.454 42.0042 126.432 43.0716L126.271 50.701 120.591 50.5814 120.762 42.4369C120.776 41.7872 120.748 41.3455 120.678 41.1119 120.565 40.7381 120.362 40.4344 120.069 40.2007 119.775 39.967 119.429 39.846 119.028 39.8376 118.376 39.8238 117.835 40.0585 117.406 40.5416 116.977 41.0247 116.75 41.8278 116.726 42.9509L116.568 50.4968 110.887 50.3772 111.198 35.5918 116.489 35.7031 116.443 37.861C117.225 36.9768 118.007 36.3525 118.791 35.9883 119.575 35.6241 120.516 35.4536 121.613 35.4766Z" fill="#4472C4" fill-rule="evenodd"/><text fill="#000000" fill-opacity="0" font-family="Arial,Arial_MSFontService,sans-serif" font-size="15.4306" x="110.887" y="48.9764">m</text><path d="M148.165 41.6922C147.284 41.5063 146.506 41.7075 145.832 42.2958 145.404 42.661 145.054 43.2654 144.781 44.1092L150.244 45.2618C150.362 44.1669 150.235 43.3385 149.865 42.7765 149.495 42.2146 148.928 41.8531 148.165 41.6922ZM148.626 38.3596C150.697 38.7964 152.266 39.4547 153.333 40.3344 154.4 41.2141 155.121 42.3151 155.497 43.6373 155.873 44.9594 155.86 46.5743 155.457 48.4819L155.325 49.1087 144.207 46.7633C144.119 47.6746 144.22 48.3885 144.509 48.905 144.913 49.6448 145.546 50.1057 146.409 50.2877 146.954 50.4027 147.501 50.3757 148.049 50.2066 148.385 50.0973 148.771 49.861 149.209 49.4978L154.566 51.1545C153.424 52.4316 152.196 53.2613 150.882 53.6435 149.568 54.0257 147.807 53.984 145.6 53.5184 143.683 53.1141 142.232 52.5257 141.247 51.7534 140.262 50.9811 139.532 49.9306 139.058 48.6019 138.584 47.2732 138.515 45.8141 138.85 44.2244 139.327 41.9626 140.438 40.2851 142.182 39.1918 143.926 38.0985 146.074 37.8211 148.626 38.3596Z" fill="#4472C4" fill-rule="evenodd"/><text fill="#000000" fill-opacity="0" font-family="Arial,Arial_MSFontService,sans-serif" font-size="15.8089" x="138.642" y="51.9258">e</text><path d="M170.899 45.1328C172.364 45.695 173.343 46.5705 173.836 47.7592 174.329 48.948 174.227 50.4524 173.528 52.2725L170.16 61.0478 164.843 59.0069 167.757 51.4146C168.09 50.5479 168.165 49.8731 167.982 49.3904 167.799 48.9076 167.418 48.5547 166.837 48.3319 166.196 48.0857 165.582 48.1288 164.997 48.4611 164.412 48.7934 163.879 49.5879 163.396 50.8446L160.851 57.4749 155.56 55.444 160.86 41.6374 165.787 43.5286 164.924 45.7777C166.013 45.1418 167.01 44.7713 167.916 44.6664 168.821 44.5615 169.816 44.717 170.899 45.1328Z" fill="#4472C4" fill-rule="evenodd"/><text fill="#000000" fill-opacity="0" font-family="Arial,Arial_MSFontService,sans-serif" font-size="19.4105" x="155.56" y="58.6215">n</text><path d="M184.044 56.4572C183.48 56.1157 182.866 56.0638 182.201 56.3014 181.536 56.539 180.869 57.2097 180.201 58.3134 179.575 59.3456 179.314 60.221 179.416 60.9395 179.518 61.658 179.859 62.1928 180.438 62.5439 181.058 62.9191 181.72 62.9895 182.427 62.7552 183.133 62.521 183.818 61.856 184.482 60.7602 185.083 59.7676 185.321 58.8997 185.196 58.1565 185.071 57.4132 184.687 56.8468 184.044 56.4572ZM191.17 49.6378 196.065 52.603 185.489 70.0641 180.951 67.3153 182.083 65.4453C180.967 65.8546 180.063 66.0394 179.371 65.9999 178.451 65.9419 177.562 65.6532 176.704 65.1337 174.981 64.09 174.062 62.6377 173.946 60.7768 173.831 58.9159 174.34 57.0485 175.476 55.1745 176.745 53.0783 178.219 51.7785 179.897 51.2753 181.575 50.7721 183.188 50.9894 184.736 51.9273 185.491 52.3842 186.099 52.9261 186.56 53.553 187.021 54.1798 187.337 54.8916 187.505 55.6884Z" fill="#4472C4" fill-rule="evenodd"/><text fill="#000000" fill-opacity="0" font-family="Arial,Arial_MSFontService,sans-serif" font-size="20.4263" x="173.93" y="67.5108">d</text><path d="M201.051 68.1206C200.393 67.5056 199.623 67.2752 198.742 67.4296 198.187 67.5205 197.574 67.8563 196.904 68.4371L200.982 72.251C201.649 71.3748 201.97 70.6005 201.944 69.9281 201.918 69.2557 201.62 68.6532 201.051 68.1206ZM203.17 65.5076C204.716 66.9533 205.718 68.3286 206.175 69.6334 206.633 70.9383 206.68 72.2536 206.318 73.5794 205.955 74.9052 205.108 76.2801 203.776 77.7041L203.339 78.172 195.039 70.411C194.492 71.1452 194.209 71.8083 194.189 72.4001 194.152 73.242 194.455 73.9642 195.099 74.5666 195.506 74.947 195.988 75.2067 196.544 75.3457 196.889 75.4261 197.342 75.424 197.904 75.3395L201.631 79.5298C199.992 80.0314 198.512 80.1057 197.19 79.7526 195.868 79.3996 194.383 78.4527 192.735 76.9119 191.304 75.574 190.367 74.3197 189.924 73.1491 189.481 71.9784 189.4 70.7019 189.682 69.3197 189.964 67.9375 190.66 66.6531 191.77 65.4664 193.348 63.778 195.167 62.9173 197.225 62.8844 199.283 62.8515 201.265 63.7259 203.17 65.5076Z" fill="#4472C4" fill-rule="evenodd"/><text fill="#000000" fill-opacity="0" font-family="Arial,Arial_MSFontService,sans-serif" font-size="17.0879" x="189.518" y="77.8354">e</text><path d="M217.413 82.4256C217.895 83.1078 218.21 84.0046 218.359 85.1159L214.049 86.0139C213.89 85.3073 213.699 84.7948 213.474 84.4764 213.045 83.8699 212.463 83.5768 211.726 83.5968 210.684 83.6176 209.196 84.3111 207.263 85.6775L203.214 88.5389 199.927 83.8879 212.004 75.352 215.066 79.6846 213.087 81.0831C214.239 80.8946 215.132 80.9082 215.768 81.1239 216.404 81.3397 216.952 81.7736 217.413 82.4256Z" fill="#4472C4" fill-rule="evenodd"/><text fill="#000000" fill-opacity="0" font-family="Arial,Arial_MSFontService,sans-serif" font-size="13.1869" x="199.927" y="86.8905">r</text><text fill="#767171" font-family="Arial Black,Arial Black_MSFontService,sans-serif" font-weight="900" font-size="19" transform="translate(37.1269 221)">filtering with <tspan fill="#4472C4" font-family="Calibri,Calibri_MSFontService,sans-serif" font-weight="700" font-size="32" x="143.167" y="0">R</tspan><tspan font-size="19" x="13.7332" y="-27">collaborative</tspan></text><g clip-path="url(#clip3)"><g clip-path="url(#clip4)"><g clip-path="url(#clip5)"><path d="M54.7375 21.9312 51.5958 20.7833 51.5958 14.1979 54.7375 12.8687 33.4708 5.01458 7.6125 14.0771C5.13542 15.2854 5.075 18.6083 5.075 21.3271 5.075 22.2333 5.19583 23.1396 5.37708 23.9854 3.32292 25.3146 3.2625 28.3958 3.2625 30.9937 3.2625 33.1083 3.74583 35.0417 5.075 36.25 4.77292 37.2771 4.95417 38.5458 4.95417 40.0563 4.95417 42.775 5.67917 45.2521 8.09583 46.0979L24.8917 53.0458 54.6167 40.7208 51.475 39.5729 51.475 32.9271 54.6167 31.5979 49.7833 29.7854 49.7833 23.9854 54.7375 21.9312ZM8.3375 18.3062 25.1333 24.8917 49.2396 15.1646 49.2396 20.3604 25.1333 30.3896 8.3375 23.7437 8.3375 18.3062ZM49.1188 39.15 25.0125 49.1188 8.15625 42.4729 8.15625 37.7604 23.2 43.9229 49.1792 33.6521 49.1188 39.15ZM47.4271 30.0875 23.3208 40.0563 6.525 33.4104 6.525 27.9729 23.8042 34.8604 47.4875 24.9521 47.4875 30.0875Z" fill="#A5A5A5" transform="matrix(1 0 0 1.01724 33 95)"/></g></g></g><g clip-path="url(#clip6)"><g clip-path="url(#clip7)"><g clip-path="url(#clip8)"><path d="M50.7889 22.0363 27.9139 27.4564 27.9139 46.3854C26.6379 46.1312 25.3161 46.2436 24.1014 46.7095 21.3436 47.7134 19.6534 50.0136 20.2889 51.85 20.9243 53.6864 23.7265 54.3917 26.4842 53.3686 28.975 52.4664 30.3983 50.1916 30.3983 48.7809L30.3983 30.4492 48.19 26.2491 48.19 42.198C46.8866 41.9355 45.5354 42.0501 44.2949 42.5284 41.4736 43.5642 39.7326 45.9343 40.4189 47.8342 41.1051 49.7341 43.9454 50.433 46.773 49.4036 49.1622 48.5458 50.7507 46.773 50.8333 45.1146Z" fill="#A5A5A5" transform="matrix(1.01639 0 0 1 89 81)"/><path d="M21.3373 11.0563C20.7779 10.6911 20.3105 10.2019 19.9711 9.62656L19.9711 8.4574C19.9711 7.75552 19.4022 7.18656 18.7003 7.18656 17.9984 7.18656 17.4295 7.75552 17.4295 8.4574L17.4295 27.6406C16.2003 27.424 14.9354 27.5447 13.7695 27.9901 11.0118 28.9877 9.32156 31.2879 9.95698 33.1306 10.5924 34.9733 13.4009 35.6723 16.1586 34.6493 18.0649 33.9503 19.4755 32.6223 19.9267 31.2561L19.9267 17.8552C20.0985 17.9897 20.2789 18.1127 20.4668 18.2238 24.705 20.7654 22.373 24.7812 24.4445 24.8003 27.1069 24.8194 27.2149 14.9768 21.3373 11.0563Z" fill="#A5A5A5" transform="matrix(1.01639 0 0 1 89 81)"/></g></g></g><text fill="#4472C4" font-family="Arial Black,Arial Black_MSFontService,sans-serif" font-weight="900" font-size="24" transform="translate(101.749 77)">lab</text><g clip-path="url(#clip9)"><g clip-path="url(#clip10)"><g clip-path="url(#clip11)"><path d="M185.829 111.774 181.384 111.06 181.919 107.726 186.365 108.44 185.829 111.774ZM184.446 120.387 180.001 119.673 180.536 116.339 184.982 117.053 184.446 120.387ZM183.064 129 178.618 128.286 179.154 124.952 183.599 125.666 183.064 129ZM181.681 137.613 177.235 136.899 177.771 133.565 182.216 134.279 181.681 137.613ZM180.298 146.225 175.852 145.512 176.388 142.178 180.833 142.891 180.298 146.225ZM165.27 108.473 160.824 107.759 161.359 104.425 165.805 105.139 165.27 108.473ZM163.887 117.086 159.441 116.372 159.977 113.038 164.422 113.752 163.887 117.086ZM162.504 125.699 158.058 124.985 158.594 121.651 163.039 122.365 162.504 125.699ZM161.121 134.311 156.676 133.598 157.211 130.264 161.656 130.977 161.121 134.311ZM159.738 142.924 155.293 142.211 155.828 138.877 160.273 139.59 159.738 142.924ZM159.116 100.645 151.979 145.099 183.097 150.095 190.234 105.641 159.116 100.645Z" fill="#AFABAB"/></g></g></g><g clip-path="url(#clip12)" filter="url(#fx0)" transform="translate(37 101)"><g clip-path="url(#clip13)"><g clip-path="url(#clip14)"><g clip-path="url(#clip15)"><g clip-path="url(#clip16)"><path d="M92.5505 43.936 81.1055 43.936 77.2905 32.491 73.4755 43.936 62.5227 43.936 62.0305 43.936 51.0777 43.936 47.2627 32.491 43.4477 43.936 32.495 43.936 32.0027 43.936 21.05 43.936 17.235 32.491 13.42 43.936 1.97494 43.936 10.749 51.566 7.31595 63.0111 17.235 56.1441 27.154 63.0111 23.721 51.566 32.2488 44.1507 40.7767 51.566 37.3437 63.0111 47.2627 56.1441 57.1817 63.0111 53.7487 51.566 62.2766 44.1507 70.8045 51.566 67.3715 63.0111 77.2905 56.1441 87.2095 63.0111 83.7765 51.566 92.5505 43.936Z" fill="#FFC000" transform="matrix(1 0 0 1.03689 6.82843 6.82843)"/></g></g></g></g></g><g clip-path="url(#clip17)"><g clip-path="url(#clip18)"><g clip-path="url(#clip19)"><path d="M92.5505 43.936 81.1055 43.936 77.2905 32.491 73.4755 43.936 62.5227 43.936 62.0305 43.936 51.0777 43.936 47.2627 32.491 43.4477 43.936 32.495 43.936 32.0027 43.936 21.05 43.936 17.235 32.491 13.42 43.936 1.97494 43.936 10.749 51.566 7.31595 63.0111 17.235 56.1441 27.154 63.0111 23.721 51.566 32.2488 44.1507 40.7767 51.566 37.3437 63.0111 47.2627 56.1441 57.1817 63.0111 53.7487 51.566 62.2766 44.1507 70.8045 51.566 67.3715 63.0111 77.2905 56.1441 87.2095 63.0111 83.7765 51.566 92.5505 43.936Z" fill="#FFC000" transform="matrix(1 0 0 1.03689 41 105)"/></g></g></g><g clip-path="url(#clip20)" filter="url(#fx1)" transform="translate(97 101)"><g clip-path="url(#clip21)"><g clip-path="url(#clip22)"><g clip-path="url(#clip23)"><g clip-path="url(#clip24)"><path d="M7.27619 62.6667 17.1413 55.837 27.0064 62.6667 23.592 51.2848 32.0736 43.9098 40.5551 51.2848 37.1408 62.6667 47.0059 55.837 56.871 62.6667 53.4566 51.2848 61.9382 43.9098 70.4197 51.2848 67.0054 62.6667 76.8705 55.837 86.7356 62.6667 83.3202 51.2848 92.0475 43.6963 80.6647 43.6963 76.8705 32.3125 73.0762 43.6963 50.8001 43.6963 47.0059 32.3125 43.2116 43.6963 20.9356 43.6963 17.1413 32.3125 13.347 43.6963 1.96421 43.6963 10.6905 51.2848ZM73.0762 45.6536 74.4872 45.6536 74.9337 44.3151 76.8705 38.5057 78.8073 44.3151 79.2528 45.6536 86.811 45.6536 82.0356 49.8063 81.0819 50.6356 81.4451 51.8469 83.2527 57.8736 77.9847 54.2272 76.8705 53.4556 75.7552 54.2272 70.4873 57.8736 72.2958 51.8469 72.6591 50.6356 71.7054 49.8063 66.93 45.6536Z" fill="#FFC000" transform="matrix(1 0 0 1.04255 6.82843 6.82843)"/></g></g></g></g></g><g clip-path="url(#clip25)"><g clip-path="url(#clip26)"><g clip-path="url(#clip27)"><path d="M7.27619 62.6667 17.1413 55.837 27.0064 62.6667 23.592 51.2848 32.0736 43.9098 40.5551 51.2848 37.1408 62.6667 47.0059 55.837 56.871 62.6667 53.4566 51.2848 61.9382 43.9098 70.4197 51.2848 67.0054 62.6667 76.8705 55.837 86.7356 62.6667 83.3202 51.2848 92.0475 43.6963 80.6647 43.6963 76.8705 32.3125 73.0762 43.6963 50.8001 43.6963 47.0059 32.3125 43.2116 43.6963 20.9356 43.6963 17.1413 32.3125 13.347 43.6963 1.96421 43.6963 10.6905 51.2848ZM73.0762 45.6536 74.4872 45.6536 74.9337 44.3151 76.8705 38.5057 78.8073 44.3151 79.2528 45.6536 86.811 45.6536 82.0356 49.8063 81.0819 50.6356 81.4451 51.8469 83.2527 57.8736 77.9847 54.2272 76.8705 53.4556 75.7552 54.2272 70.4873 57.8736 72.2958 51.8469 72.6591 50.6356 71.7054 49.8063 66.93 45.6536Z" fill="#FFC000" transform="matrix(1 0 0 1.04255 101 105)"/></g></g></g></g></svg>